<mxfile host="app.diagrams.net" modified="2023-02-01T21:05:08.354Z" agent="5.0 (X11; Linux x86_64) AppleWebKit/537.36 (KHTML, like Gecko) Chrome/109.0.0.0 Safari/537.36" etag="IJaLlgzXYYIf4B9PG8D2" version="20.8.13" type="github">
  <diagram name="Page-1" id="jtJ2pqk8T3g2jAMuxwGs">
    <mxGraphModel dx="756" dy="466" grid="1" gridSize="10" guides="1" tooltips="1" connect="1" arrows="1" fold="1" page="1" pageScale="1" pageWidth="850" pageHeight="1100" math="0" shadow="0">
      <root>
        <mxCell id="0" />
        <mxCell id="1" parent="0" />
      </root>
    </mxGraphModel>
  </diagram>
</mxfile>
